# xmcd
#
# Track frame offsets:
#	150
#	15967
#	34300
#	48810
#	64122
#	82045
#	97897
#	114125
#	132882
#	148895
#
# Disc length: 2167 seconds
#
# Revision: 1
# Processed by: cddbd v1.4PL0 Copyright (c) Steve Scherf et al.
# Submitted via: EasyCDDAExtractor 6.2.0.3
#
DISCID=7908750a
DTITLE=Moore and Moore - Master Of My Own Destiny
DYEAR=1900
DGENRE=Country
TTITLE0=I Surrender
TTITLE1=Master Of My Own Destiny
TTITLE2=I Like Love
TTITLE3=Tell Me Another Story
TTITLE4=Dam The Floodgates
TTITLE5=Springtime Love
TTITLE6=I'll Teach You Things
TTITLE7=Makin' Macon
TTITLE8=Tell That Boy Goodbye
TTITLE9=I'll Get Through
EXTD=
EXTT0=
EXTT1=
EXTT2=
EXTT3=
EXTT4=
EXTT5=
EXTT6=
EXTT7=
EXTT8=
EXTT9=
PLAYORDER=
